<svg width="14" height="9" viewBox="0 0 14 9" fill="none" xmlns="http://www.w3.org/2000/svg">
<path d="M5.77325 8.5325L0.377749 2.36525C-0.259001 1.63963 0.258499 0.5 1.22487 0.5H12.0159C12.2321 0.499815 12.4439 0.561974 12.6257 0.679034C12.8076 0.796093 12.9519 0.963092 13.0413 1.16003C13.1306 1.35697 13.1614 1.5755 13.1298 1.78945C13.0981 2.0034 13.0055 2.20371 12.863 2.36638L7.4675 8.53137C7.3619 8.65221 7.23168 8.74906 7.08557 8.81541C6.93946 8.88177 6.78085 8.9161 6.62037 8.9161C6.4599 8.9161 6.30129 8.88177 6.15518 8.81541C6.00907 8.74906 5.87884 8.65221 5.77325 8.53137V8.5325Z" fill="#444444"/>
</svg>
